<?xml version="1.0" encoding="utf-8"?>
<!-- Generator: Adobe Illustrator 23.0.6, SVG Export Plug-In . SVG Version: 6.00 Build 0)  -->
<svg version="1.1" id="farve" xmlns="http://www.w3.org/2000/svg" xmlns:xlink="http://www.w3.org/1999/xlink" x="0px" y="0px"
	 viewBox="0 0 165.3 119.9" style="enable-background:new 0 0 165.3 119.9;" xml:space="preserve">
<style type="text/css">
	.st0{fill:#FFFFFF;}
</style>
<path class="st0" d="M47.4,72.4c7.6-7.4,8.7-9.7,12-18.5c1.9,1.2,6.9,4.6,9.5,5.4c6.8,1.9,7-4.7,6.5-9.7c-0.9-5.2-3.4-10.1-5.2-14.9
	c-1.7-4.5-3.9-11-5.1-14.9c0.8-0.8,1.3-1.8,1.5-2.5C70.2,1.3,90-4.8,101.9,7.1c0.2,0.2,0.4,0.3,0.6,0.4c6.5-5.4,13.8-6.9,21.7-3.8
	c4.7,1.8,8.3,5,10.6,9.5c0.7,1.4,1.4,1.8,2.9,1.8c13.9-0.3,23.5,10.9,21.2,24.7c-0.2,0.9,0.2,2.2,0.9,3c9.6,11.1,6.5,26.5-6.6,33
	c-0.9,0.4-1.7,1.2-2.2,2c-2.8,5-6.9,8.5-12.4,10.1c-1.5,0.4-1.6,1.3-1.6,2.5c0,8.3,0,16.5,0,24.8c0,2.6-1.4,4.2-3.7,4.6
	c-1.8,0.3-3.9-1-4.5-2.9c-0.3-0.8-0.3-1.7-0.3-2.6c0-7.9,0-15.7,0-23.6c0-1.1,0.5-2.6-1.9-2.5c0,1,0,2,0,3c0,7.7,0.1,15.4-0.1,23.1
	c0,1.6-0.8,3.6-1.9,4.6c-0.8,0.8-2.9,0.7-4.2,0.3c-1.8-0.5-2.3-2.3-2.3-4.1c0-9,0-18,0-27v-2.6c-2,1.1-3.7,2.1-5.4,2.8
	c-3.4,1.5-6.9,2.1-10.6,1.6c-1.4-0.2-2.8,0.1-4.3,0.3c-3.4,0.5-6.8,1-10.6,1.5c0,0.4-0.1,1.2-0.1,2.1c0,6.7,0,13.4-0.1,20.2
	c0,2.9-1.6,4.4-4.3,4.3c-2.4,0-4-1.7-4-4.5c0-7.6,0-15.2,0-22.8c0-1,0-2.1,0-3.2c-2.4,0.1-3.4,1-3.3,3.4c0.1,7.4,0.1,14.7,0,22.1
	c0,3.2-1.6,5-4.2,5.1c-2.6,0-4.3-1.9-4.3-5c0-6.9-0.1-13.8,0-20.6c0-1.9-0.3-2.7-2.5-3.1c-7.6-1.4-12.7-5.9-15.6-13.3L47.4,72.4z"/>
<path class="st0" d="M20.5,39.2c-2.8,1-5.1,2-7.5,2.7c-1.6,0.5-3.3,0.8-5,0.9c-2.9,0.1-4.2-1.7-2.8-4.2c1.4-2.7,3.3-5.2,5.3-7.4
	c1.7-1.9,3.9-3.4,5.7-5.2c1.5-1.5,2.9-3.2,4.4-4.8c0.5-0.6,1.3-1,1.8-1.6c0.7-0.8,1.3-1.6,1.8-2.5c0.4-0.6,0.5-1.5,1-1.9
	c2.2-1.6,4.5-3.2,7-4.3c1.2-0.5,2.9,0.3,4.9,0.5c3.5-2.2,4.8-2.1,7.5,1.1c2.5-1.5,4.9-1.8,7,0.8c0.1,0.1,0.3,0.3,0.4,0.3
	c3.5-1.3,5,1.9,7.3,3.4c0.3,0.2,0.8,0.4,1,0.7c1.2,3.3,3.8,6,3.9,9.8c0,2.2,1,4.4,1.8,6.6c1.6,4.4,4.1,8.5,5.6,13
	c0.7,2.2,0.9,4.2,0.9,6.5c0,1.8-1.6,3-3.3,2.2c-2.2-1.1-4.3-2.5-6.3-4c-1.6-1.3-3.4-2.9-5-4.6c-1.2,3.4-2.2,6.6-3.5,9.7
	c-2.4,5.8-5.9,10.8-11.1,14.4c-7.7,5.2-16,2.9-20.2-5.4c-3.7-7.3-4.3-15-3-22.9C20.1,41.8,20.2,40.7,20.5,39.2"/>
</svg>
